<?xml version="1.0" encoding="UTF-8"?>
<!DOCTYPE svg PUBLIC "-//W3C//DTD SVG 1.1//EN" "http://www.w3.org/Graphics/SVG/1.1/DTD/svg11.dtd">
<!-- Creator: CorelDRAW -->
<svg xmlns="http://www.w3.org/2000/svg" xml:space="preserve" width="139.858mm" height="80.5543mm" version="1.1" shape-rendering="geometricPrecision" text-rendering="geometricPrecision" image-rendering="optimizeQuality" fill-rule="evenodd" clip-rule="evenodd"
viewBox="0 0 13970.54 8046.63"
 xmlns:xlink="http://www.w3.org/1999/xlink"
 xmlns:xodm="http://www.corel.com/coreldraw/odm/2003">
 <g id="Capa_x0020_1">
  <metadata id="CorelCorpID_0Corel-Layer"/>
  <polygon fill="none" fill-rule="nonzero" points="365.89,7931.69 71.19,7931.69 854.17,6053.72 1634.24,7931.69 1342.44,7931.69 854.17,6767.35 "/>
  <path id="_1" fill="none" fill-rule="nonzero" d="M3140.57 6351.3c-169.49,0 -313.96,62.6 -433.38,187.79 -119.42,125.2 -179.13,275.44 -179.13,450.72 0,177.21 59.71,329.37 179.13,456.49 119.42,127.13 263.88,190.69 433.38,190.69 98.23,0 193.1,-25.04 284.59,-75.12 91.49,-50.09 167.09,-119.42 226.8,-208.02l66.45 -95.35 -326.47 -286.03 193.58 -222.48 459.38 401.6c-63.56,234.99 -177.69,423.76 -342.37,566.29 -164.69,142.53 -352,213.8 -561.96,213.8 -250.4,0 -464.19,-91.97 -641.4,-275.92 -177.21,-183.95 -265.81,-405.94 -265.81,-665.96 0,-258.1 88.6,-478.65 265.81,-661.63 177.21,-182.98 391,-274.47 641.4,-274.47 177.21,0 341.9,49.12 494.06,147.35l-199.36 225.35c-88.6,-50.08 -186.84,-75.12 -294.7,-75.12z"/>
  <polygon id="_2" fill="none" fill-rule="nonzero" points="5135.18,6348.42 5135.18,6845.35 5744.81,6845.35 5744.81,7140.05 5135.18,7140.05 5135.18,7637 5993.27,7637 5993.27,7931.69 4840.48,7931.69 4840.48,6053.72 5993.27,6053.72 5993.27,6348.42 "/>
  <polygon id="_3" fill="none" fill-rule="nonzero" points="8213.24,7928.81 7135.56,6807.79 7135.56,7931.69 6840.87,7931.69 6840.87,6053.72 7918.54,7183.39 7918.54,6053.72 8213.24,6053.72 "/>
  <path id="_4" fill="none" fill-rule="nonzero" d="M9970.92 6351.3c-169.49,0 -313.96,62.6 -433.38,187.79 -119.42,125.2 -179.13,275.44 -179.13,450.72 0,179.13 59.71,331.78 179.13,457.94 119.42,126.16 263.88,189.24 433.38,189.24 105.94,0 204.18,-26 294.7,-78l199.36 225.35c-148.32,98.23 -313,147.35 -494.06,147.35 -250.4,0 -464.19,-91.49 -641.4,-274.47 -177.21,-182.99 -265.81,-403.53 -265.81,-661.63 0,-260.04 88.6,-482.02 265.81,-665.96 177.21,-183.95 391,-275.92 641.4,-275.92 181.06,0 345.74,49.12 494.06,147.35l-199.36 228.24c-86.68,-52 -184.91,-78 -294.7,-78z"/>
  <g>
   <polygon id="_5" fill="none" fill-rule="nonzero" stroke="white" stroke-width="94.9" stroke-miterlimit="22.9256" points="11269.23,7931.69 11269.23,6053.72 11563.93,6053.72 11563.93,7931.69 "/>
  </g>
  <g>
   <polygon id="_6" fill="none" fill-rule="nonzero" stroke="white" stroke-width="94.9" stroke-miterlimit="22.9256" points="12631.09,7931.69 12336.39,7931.69 13119.37,6053.72 13899.44,7931.69 13607.64,7931.69 13119.37,6767.35 "/>
  </g>
  <polygon id="_7" fill="none" fill-rule="nonzero" points="365.89,7931.69 71.19,7931.69 854.17,6053.72 1634.24,7931.69 1342.44,7931.69 854.17,6767.35 "/>
  <path id="_8" fill="none" fill-rule="nonzero" d="M3140.57 6351.3c-169.49,0 -313.96,62.6 -433.38,187.79 -119.42,125.2 -179.13,275.44 -179.13,450.72 0,177.21 59.71,329.37 179.13,456.49 119.42,127.13 263.88,190.69 433.38,190.69 98.23,0 193.1,-25.04 284.59,-75.12 91.49,-50.09 167.09,-119.42 226.8,-208.02l66.45 -95.35 -326.47 -286.03 193.58 -222.48 459.38 401.6c-63.56,234.99 -177.69,423.76 -342.37,566.29 -164.69,142.53 -352,213.8 -561.96,213.8 -250.4,0 -464.19,-91.97 -641.4,-275.92 -177.21,-183.95 -265.81,-405.94 -265.81,-665.96 0,-258.1 88.6,-478.65 265.81,-661.63 177.21,-182.98 391,-274.47 641.4,-274.47 177.21,0 341.9,49.12 494.06,147.35l-199.36 225.35c-88.6,-50.08 -186.84,-75.12 -294.7,-75.12z"/>
  <polygon id="_9" fill="none" fill-rule="nonzero" points="5135.18,6348.42 5135.18,6845.35 5744.81,6845.35 5744.81,7140.05 5135.18,7140.05 5135.18,7637 5993.27,7637 5993.27,7931.69 4840.48,7931.69 4840.48,6053.72 5993.27,6053.72 5993.27,6348.42 "/>
  <polygon id="_10" fill="none" fill-rule="nonzero" points="8213.24,7928.81 7135.56,6807.79 7135.56,7931.69 6840.87,7931.69 6840.87,6053.72 7918.54,7183.39 7918.54,6053.72 8213.24,6053.72 "/>
  <path id="_11" fill="none" fill-rule="nonzero" d="M9970.92 6351.3c-169.49,0 -313.96,62.6 -433.38,187.79 -119.42,125.2 -179.13,275.44 -179.13,450.72 0,179.13 59.71,331.78 179.13,457.94 119.42,126.16 263.88,189.24 433.38,189.24 105.94,0 204.18,-26 294.7,-78l199.36 225.35c-148.32,98.23 -313,147.35 -494.06,147.35 -250.4,0 -464.19,-91.49 -641.4,-274.47 -177.21,-182.99 -265.81,-403.53 -265.81,-661.63 0,-260.04 88.6,-482.02 265.81,-665.96 177.21,-183.95 391,-275.92 641.4,-275.92 181.06,0 345.74,49.12 494.06,147.35l-199.36 228.24c-86.68,-52 -184.91,-78 -294.7,-78z"/>
  <polygon id="_12" fill="white" fill-rule="nonzero" points="11269.23,7931.69 11269.23,6053.72 11563.93,6053.72 11563.93,7931.69 "/>
  <polygon id="_13" fill="white" fill-rule="nonzero" points="12631.09,7931.69 12336.39,7931.69 13119.37,6053.72 13899.44,7931.69 13607.64,7931.69 13119.37,6767.35 "/>
  <polygon id="_14" fill="none" fill-rule="nonzero" stroke="white" stroke-width="94.9" stroke-miterlimit="22.9256" points="365.89,7931.69 71.19,7931.69 854.17,6053.72 1634.24,7931.69 1342.44,7931.69 854.17,6767.35 "/>
  <path id="_15" fill="none" fill-rule="nonzero" stroke="white" stroke-width="94.9" stroke-miterlimit="22.9256" d="M3140.57 6351.3c-169.49,0 -313.96,62.6 -433.38,187.79 -119.42,125.2 -179.13,275.44 -179.13,450.72 0,177.21 59.71,329.37 179.13,456.49 119.42,127.13 263.88,190.69 433.38,190.69 98.23,0 193.1,-25.04 284.59,-75.12 91.49,-50.09 167.09,-119.42 226.8,-208.02l66.45 -95.35 -326.47 -286.03 193.58 -222.48 459.38 401.6c-63.56,234.99 -177.69,423.76 -342.37,566.29 -164.69,142.53 -352,213.8 -561.96,213.8 -250.4,0 -464.19,-91.97 -641.4,-275.92 -177.21,-183.95 -265.81,-405.94 -265.81,-665.96 0,-258.1 88.6,-478.65 265.81,-661.63 177.21,-182.98 391,-274.47 641.4,-274.47 177.21,0 341.9,49.12 494.06,147.35l-199.36 225.35c-88.6,-50.08 -186.84,-75.12 -294.7,-75.12z"/>
  <polygon id="_16" fill="none" fill-rule="nonzero" stroke="white" stroke-width="94.9" stroke-miterlimit="22.9256" points="5135.18,6348.42 5135.18,6845.35 5744.81,6845.35 5744.81,7140.05 5135.18,7140.05 5135.18,7637 5993.27,7637 5993.27,7931.69 4840.48,7931.69 4840.48,6053.72 5993.27,6053.72 5993.27,6348.42 "/>
  <polygon id="_17" fill="none" fill-rule="nonzero" stroke="white" stroke-width="94.9" stroke-miterlimit="22.9256" points="8213.24,7928.81 7135.56,6807.79 7135.56,7931.69 6840.87,7931.69 6840.87,6053.72 7918.54,7183.39 7918.54,6053.72 8213.24,6053.72 "/>
  <path id="_18" fill="none" fill-rule="nonzero" stroke="white" stroke-width="94.9" stroke-miterlimit="22.9256" d="M9970.92 6351.3c-169.49,0 -313.96,62.6 -433.38,187.79 -119.42,125.2 -179.13,275.44 -179.13,450.72 0,179.13 59.71,331.78 179.13,457.94 119.42,126.16 263.88,189.24 433.38,189.24 105.94,0 204.18,-26 294.7,-78l199.36 225.35c-148.32,98.23 -313,147.35 -494.06,147.35 -250.4,0 -464.19,-91.49 -641.4,-274.47 -177.21,-182.99 -265.81,-403.53 -265.81,-661.63 0,-260.04 88.6,-482.02 265.81,-665.96 177.21,-183.95 391,-275.92 641.4,-275.92 181.06,0 345.74,49.12 494.06,147.35l-199.36 228.24c-86.68,-52 -184.91,-78 -294.7,-78z"/>
  <polygon id="_19" fill="none" fill-rule="nonzero" points="11269.23,7931.69 11269.23,6053.72 11563.93,6053.72 11563.93,7931.69 "/>
  <polygon id="_20" fill="none" fill-rule="nonzero" points="12631.09,7931.69 12336.39,7931.69 13119.37,6053.72 13899.44,7931.69 13607.64,7931.69 13119.37,6767.35 "/>
  <g id="_2261814231040">
   <path fill="white" fill-rule="nonzero" d="M5846.99 4751.87c-125.26,-75.43 -219.48,-177.36 -286.88,-303.79 -11.93,-22.37 -27.05,-32.49 -50.32,-39.5 -295.44,-88.79 -464.94,-290.51 -525.11,-589.23 -3.18,-15.78 -7.6,-32.39 -5.68,-47.91 5.33,-43.12 -17.29,-67.46 -47.68,-94.12 -129.27,-113.37 -210.41,-254.9 -237.69,-425.96 -13.07,-81.92 -10.16,-163.15 9.62,-243.58 5.41,-22.01 4.09,-39.73 -9.12,-60.08 -91.75,-141.31 -130.22,-297.31 -117.69,-464.68 8.39,-112.25 44.68,-217.05 101.63,-314.08 16.26,-27.69 19.53,-52.17 11.64,-84.84 -79.31,-328.2 36.72,-643.39 337.01,-823.12 18.83,-11.28 31.73,-20.51 29.78,-49.16 -21.03,-310.34 143.82,-570.02 432.59,-685.03 47.19,-18.8 96.59,-31.3 146.92,-36.3 30.91,-3.07 43.94,-18.26 54.03,-44.99 59.07,-156.5 167.75,-270.86 312.27,-349.87 173.39,-94.78 357.39,-125.54 548.79,-63.01 145.18,47.43 243.48,143.79 279.44,296.24 6.91,29.3 10.36,59.19 10.33,89.62 -0.29,374.61 -1.33,749.23 0.5,1123.84 0.64,129.85 -47.65,236.98 -135.39,328.51 -90.38,94.28 -185.73,184.01 -272.73,281.24 -169.91,189.83 -195.15,447.04 -0.47,648.83 90.67,93.99 183.4,186.04 277.01,277.11 90.14,87.69 132.53,192.12 131.68,318.4 -2.16,321.7 -5.29,643.52 0.82,965.11 4.54,238.13 -157.7,455.25 -415.72,501.83 -206.48,37.28 -397.79,-6.61 -579.57,-111.5zm2206.22 0c125.27,-75.43 219.49,-177.36 286.88,-303.79 11.93,-22.37 27.05,-32.49 50.33,-39.5 295.44,-88.79 464.94,-290.51 525.11,-589.23 3.18,-15.78 7.59,-32.39 5.68,-47.91 -5.33,-43.12 17.28,-67.46 47.68,-94.12 129.27,-113.37 210.41,-254.9 237.69,-425.96 13.06,-81.92 10.16,-163.15 -9.62,-243.58 -5.42,-22.01 -4.1,-39.73 9.12,-60.08 91.74,-141.31 130.22,-297.31 117.69,-464.68 -8.39,-112.25 -44.68,-217.05 -101.64,-314.08 -16.25,-27.69 -19.52,-52.17 -11.63,-84.84 79.3,-328.2 -36.72,-643.39 -337.01,-823.12 -18.84,-11.28 -31.73,-20.51 -29.79,-49.16 21.03,-310.34 -143.81,-570.02 -432.58,-685.03 -47.19,-18.8 -96.59,-31.3 -146.93,-36.3 -30.9,-3.07 -43.93,-18.26 -54.02,-44.99 -59.08,-156.5 -167.75,-270.86 -312.28,-349.87 -173.38,-94.78 -357.38,-125.54 -548.79,-63.01 -145.18,47.43 -243.48,143.79 -279.44,296.24 -6.91,29.3 -10.35,59.19 -10.32,89.62 0.29,374.61 1.33,749.23 -0.51,1123.84 -0.63,129.85 47.65,236.98 135.4,328.51 90.38,94.28 185.72,184.01 272.73,281.24 169.9,189.83 195.14,447.04 0.46,648.83 -90.67,93.99 -183.39,186.04 -277,277.11 -90.14,87.69 -132.53,192.12 -131.68,318.4 2.16,321.7 5.28,643.52 -0.83,965.11 -4.53,238.13 157.71,455.25 415.72,501.83 206.49,37.28 397.8,-6.61 579.57,-111.5zm-2608.69 -3970.11c-190.45,158.99 -246.3,352.67 -147.95,586.54 -14.81,4 -27.11,7.48 -39.5,10.62 -225.21,57.02 -392.18,265.04 -397.95,511.07 -2.1,89.44 23.51,174.45 55.97,257.13 8.06,20.53 10.03,37.06 -8.6,55.01 -96.62,93.08 -136.94,211.56 -137.31,341.66 -0.4,138.58 46.2,262.45 146.39,361.92 18.41,18.28 19.88,31.9 9.89,55.95 -63.98,153.98 -60.52,304.8 32.21,447.32 51.78,79.58 126.28,135.21 208.44,180.48 20.31,11.19 29.95,20.7 23.47,46.86 -35.67,144.16 4.23,272.68 88.05,389.88 94.06,131.51 222.8,199.94 384.81,203.75 20.09,0.48 27.86,8.92 32.95,27.35 79.27,286.85 390.47,465.24 680.87,412.33 187.44,-34.16 273.34,-137.36 276.78,-309.51 6.51,-326.98 2.82,-654.2 1.13,-981.31 -0.37,-69.22 -24.38,-132.47 -75.32,-184.73 -6.74,5.29 -12.14,8.72 -16.54,13.12 -76.34,76.31 -153.21,152.09 -228.55,229.37 -47.37,48.58 -68.65,109.34 -69.11,176.34 -1.01,148.98 0.12,297.96 -0.74,446.95 -0.14,23.38 5.72,39.68 24.43,55.35 52.21,43.74 67.13,101.23 50.54,166.21 -16.84,66.02 -74.68,111 -144.18,114.99 -58.62,3.37 -122.75,-35.75 -146.3,-89.24 -30.27,-68.75 -17.73,-143.19 36.05,-189.34 20.37,-17.47 27.08,-34.98 26.9,-60.78 -1.05,-151.13 -0.58,-302.29 -0.44,-453.42 0.01,-15.07 -1.38,-30.88 2.56,-45.04 6.94,-25.02 -3.06,-30.3 -25.48,-30.04 -66.93,0.78 -133.88,1.14 -200.79,-0.07 -28.55,-0.51 -50.65,9.61 -67.59,31.2 -23.97,30.55 -46.31,62.38 -70.52,92.72 -35.39,44.34 12.64,55.42 -2.91,139.02 -15.28,82.17 -86.49,134.35 -172.83,125.7 -80.75,-8.1 -138.57,-77.53 -137.08,-164.6 1.41,-82.49 61.65,-146.66 143.02,-150.04 18.69,-0.77 29.23,-8.11 39.31,-22.51 27.84,-39.75 56.87,-78.66 85.67,-117.73 82.27,-111.59 230.46,-87.2 358.25,-85.95 77.28,0.76 140.96,-25.02 194.41,-79.4 61.28,-62.35 122.85,-124.43 183.9,-187.02 8.75,-8.96 20.64,-15.97 24.21,-32.63 -45.31,-45.18 -85.18,-97.34 -135.32,-141.33 -41.92,41.44 -84.12,80.01 -122.66,121.95 -65.81,71.62 -147.58,101.46 -242.8,101.32 -158.71,-0.23 -317.4,0.32 -476.1,-0.31 -23.98,-0.09 -41.44,5.29 -59.18,24.17 -106.22,113.06 -280.79,23.66 -276.55,-112.32 5.02,-160.84 211.8,-209.49 291.64,-89.9 13.57,20.33 28.17,25.61 50.49,25.52 157.62,-0.65 315.26,-1.35 472.86,0.16 54.97,0.52 97.84,-19.99 134.52,-58.83 33.34,-35.29 68.09,-69.25 101.29,-104.68 9.86,-10.53 32.23,-19.42 17.28,-38.81 -15.72,-20.39 -17.18,-54.27 -56.26,-53.93 -169.48,1.42 -338.99,1.48 -508.47,0.88 -78.39,-0.29 -148.34,-26.31 -206.23,-79.64 -45.24,-41.65 -88.95,-85.06 -131.89,-129.09 -17.13,-17.56 -34.78,-24.8 -59.59,-24.7 -102.72,0.4 -175.47,-98.05 -146.87,-196.52 54.83,-188.76 349.15,-122.42 298.84,79.83 -4.46,17.92 -1.15,30.37 12.05,43.11 34.16,32.98 68.28,66.15 100.4,101.08 36.19,39.35 80.23,55.74 132.76,55.39 148.98,-0.99 297.96,-1.66 446.94,-1.14 29.32,0.1 37.04,-8.85 32.67,-38.24 -14.54,-97.99 -1.68,-164.84 12.8,-257.58 -13.6,-8.32 -25.78,-5.42 -37.36,-5.46 -79.89,-0.27 -160.06,-4.33 -239.6,1.04 -93.63,6.32 -162.46,-29.49 -224.21,-97.46 -81.94,-90.22 -170.48,-174.45 -256.22,-261.21 -10.71,-10.83 -20.68,-17.65 -39.14,-15.78 -108.12,10.9 -184.05,-71.37 -178.22,-169.11 5.47,-91.83 88.02,-159.35 174.44,-148.16 93.48,12.12 158.37,92.16 140.7,188.6 -3.31,18.06 2.54,30.91 14.83,43.38 90.9,92.27 181.64,184.68 271.96,277.51 19.32,19.85 41.07,28.82 69.06,28.57 103.64,-0.95 207.32,-2.14 310.9,0.46 43.02,1.08 75.02,-5.02 99.2,-46.54 14.24,-24.46 16.29,-35.33 -4.3,-55.81 -176.78,-175.9 -354.5,-350.92 -527.44,-530.55 -122.7,-127.45 -110.8,-79.48 -109.8,-264.19 0.12,-20.76 -7.23,-33.96 -22.96,-46.25 -104.65,-81.7 -67.83,-247.06 55.45,-280.33 66.78,-18.02 138.71,11.46 172.64,70.75 37.49,65.52 25.18,150.34 -29.28,201.88 -40.47,38.28 -43.13,121.05 -3.74,160.65 181.17,182.14 362.53,364.09 544.55,545.37 18.63,18.55 34.91,40.48 60.99,55.5 52.22,-57.44 102.9,-114.76 155.54,-170.21 18.92,-19.93 20.27,-32.28 -0.79,-52.26 -71.25,-67.61 -139.42,-138.47 -210.74,-205.99 -98.61,-93.36 -149.93,-204.55 -145.98,-342.37 3.55,-124.05 0.24,-248.29 1.09,-372.44 0.16,-24.37 -6.29,-41.84 -25.01,-59.03 -52.83,-48.49 -63.38,-128.88 -28.14,-189.84 60.66,-104.95 250.47,-101.99 282.43,39.85 13.94,61.83 -3.83,115.99 -52.38,156.97 -18.71,15.79 -24.67,32.04 -24.51,55.45 0.9,130.63 -0.33,261.26 0.77,391.88 0.54,63.65 20.74,120.54 67.6,166.13l230.91 224.59c15.27,-12.34 13.95,-25.71 13.95,-38.41 0.07,-362.74 1.36,-725.5 -0.89,-1088.23 -0.54,-86.92 -37.32,-161.2 -110.93,-212.78 -81.37,-57.03 -172.01,-70.9 -268.23,-54.03 -145.52,25.51 -265.88,90.38 -347.1,219.14 -52.08,82.57 -77.73,171.86 -76.82,276.08 -148.9,-37.68 -283.27,-14.59 -406.41,80.77zm3011.17 0c190.45,158.99 246.3,352.67 147.94,586.54 14.82,4 27.12,7.48 39.51,10.62 225.2,57.02 392.17,265.04 397.95,511.07 2.1,89.44 -23.52,174.45 -55.98,257.13 -8.05,20.53 -10.02,37.06 8.61,55.01 96.62,93.08 136.94,211.56 137.31,341.66 0.39,138.58 -46.2,262.45 -146.39,361.92 -18.41,18.28 -19.88,31.9 -9.89,55.95 63.97,153.98 60.51,304.8 -32.21,447.32 -51.79,79.58 -126.28,135.21 -208.44,180.48 -20.31,11.19 -29.96,20.7 -23.47,46.86 35.67,144.16 -4.23,272.68 -88.05,389.88 -94.06,131.51 -222.8,199.94 -384.81,203.75 -20.09,0.48 -27.86,8.92 -32.95,27.35 -79.27,286.85 -390.47,465.24 -680.88,412.33 -187.44,-34.16 -273.34,-137.36 -276.77,-309.51 -6.51,-326.98 -2.83,-654.2 -1.13,-981.31 0.36,-69.22 24.38,-132.47 75.32,-184.73 6.74,5.29 12.14,8.72 16.54,13.12 76.34,76.31 153.2,152.09 228.55,229.37 47.36,48.58 68.65,109.34 69.1,176.34 1.01,148.98 -0.11,297.96 0.75,446.95 0.14,23.38 -5.72,39.68 -24.43,55.35 -52.21,43.74 -67.13,101.23 -50.55,166.21 16.85,66.02 74.69,111 144.19,114.99 58.62,3.37 122.74,-35.75 146.29,-89.24 30.27,-68.75 17.74,-143.19 -36.05,-189.34 -20.36,-17.47 -27.07,-34.98 -26.9,-60.78 1.06,-151.13 0.59,-302.29 0.45,-453.42 -0.02,-15.07 1.38,-30.88 -2.56,-45.04 -6.94,-25.02 3.05,-30.3 25.47,-30.04 66.93,0.78 133.88,1.14 200.8,-0.07 28.54,-0.51 50.64,9.61 67.59,31.2 23.96,30.55 46.3,62.38 70.52,92.72 35.39,44.34 -12.65,55.42 2.91,139.02 15.28,82.17 86.49,134.35 172.82,125.7 80.76,-8.1 138.58,-77.53 137.09,-164.6 -1.42,-82.49 -61.65,-146.66 -143.03,-150.04 -18.68,-0.77 -29.23,-8.11 -39.31,-22.51 -27.84,-39.75 -56.87,-78.66 -85.67,-117.73 -82.27,-111.59 -230.45,-87.2 -358.24,-85.95 -77.29,0.76 -140.96,-25.02 -194.41,-79.4 -61.28,-62.35 -122.85,-124.43 -183.91,-187.02 -8.74,-8.96 -20.64,-15.97 -24.2,-32.63 45.31,-45.18 85.17,-97.34 135.32,-141.33 41.92,41.44 84.12,80.01 122.65,121.95 65.82,71.62 147.59,101.46 242.81,101.32 158.7,-0.23 317.4,0.32 476.1,-0.31 23.98,-0.09 41.44,5.29 59.18,24.17 106.21,113.06 280.79,23.66 276.55,-112.32 -5.02,-160.84 -211.8,-209.49 -291.64,-89.9 -13.57,20.33 -28.17,25.61 -50.5,25.52 -157.62,-0.65 -315.25,-1.35 -472.85,0.16 -54.97,0.52 -97.84,-19.99 -134.52,-58.83 -33.34,-35.29 -68.1,-69.25 -101.29,-104.68 -9.87,-10.53 -32.24,-19.42 -17.28,-38.81 15.72,-20.39 17.18,-54.27 56.26,-53.93 169.48,1.42 338.98,1.48 508.47,0.88 78.39,-0.29 148.33,-26.31 206.23,-79.64 45.23,-41.65 88.94,-85.06 131.89,-129.09 17.13,-17.56 34.78,-24.8 59.59,-24.7 102.72,0.4 175.47,-98.05 146.87,-196.52 -54.83,-188.76 -349.15,-122.42 -298.85,79.83 4.46,17.92 1.16,30.37 -12.04,43.11 -34.16,32.98 -68.28,66.15 -100.41,101.08 -36.18,39.35 -80.22,55.74 -132.75,55.39 -148.98,-0.99 -297.96,-1.66 -446.94,-1.14 -29.32,0.1 -37.04,-8.85 -32.68,-38.24 14.55,-97.99 1.68,-164.84 -12.79,-257.58 13.6,-8.32 25.78,-5.42 37.36,-5.46 79.89,-0.27 160.06,-4.33 239.59,1.04 93.64,6.32 162.47,-29.49 224.21,-97.46 81.95,-90.22 170.48,-174.45 256.23,-261.21 10.71,-10.83 20.68,-17.65 39.13,-15.78 108.12,10.9 184.05,-71.37 178.23,-169.11 -5.47,-91.83 -88.03,-159.35 -174.44,-148.16 -93.48,12.12 -158.37,92.16 -140.7,188.6 3.31,18.06 -2.54,30.91 -14.83,43.38 -90.9,92.27 -181.64,184.68 -271.97,277.51 -19.31,19.85 -41.06,28.82 -69.05,28.57 -103.64,-0.95 -207.32,-2.14 -310.9,0.46 -43.02,1.08 -75.03,-5.02 -99.21,-46.54 -14.24,-24.46 -16.28,-35.33 4.3,-55.81 176.78,-175.9 354.51,-350.92 527.45,-530.55 122.7,-127.45 110.8,-79.48 109.8,-264.19 -0.12,-20.76 7.22,-33.96 22.95,-46.25 104.66,-81.7 67.83,-247.06 -55.44,-280.33 -66.78,-18.02 -138.72,11.46 -172.64,70.75 -37.49,65.52 -25.19,150.34 29.28,201.88 40.46,38.28 43.13,121.05 3.74,160.65 -181.17,182.14 -362.53,364.09 -544.56,545.37 -18.62,18.55 -34.9,40.48 -60.98,55.5 -52.23,-57.44 -102.91,-114.76 -155.54,-170.21 -18.92,-19.93 -20.27,-32.28 0.79,-52.26 71.24,-67.61 139.42,-138.47 210.74,-205.99 98.6,-93.36 149.92,-204.55 145.98,-342.37 -3.55,-124.05 -0.24,-248.29 -1.09,-372.44 -0.17,-24.37 6.29,-41.84 25,-59.03 52.84,-48.49 63.39,-128.88 28.15,-189.84 -60.66,-104.95 -250.47,-101.99 -282.44,39.85 -13.93,61.83 3.83,115.99 52.38,156.97 18.72,15.79 24.67,32.04 24.51,55.45 -0.89,130.63 0.34,261.26 -0.76,391.88 -0.54,63.65 -20.74,120.54 -67.6,166.13l-230.91 224.59c-15.27,-12.34 -13.95,-25.71 -13.95,-38.41 -0.08,-362.74 -1.36,-725.5 0.89,-1088.23 0.54,-86.92 37.31,-161.2 110.92,-212.78 81.38,-57.03 172.02,-70.9 268.24,-54.03 145.51,25.51 265.88,90.38 347.09,219.14 52.09,82.57 77.74,171.86 76.83,276.08 148.9,-37.68 283.27,-14.59 406.41,80.77z"/>
   <path fill="white" fill-rule="nonzero" d="M6950.1 2942.14c-19.36,-2.08 -38.99,-14.28 -61.27,-36.55 -100.71,-100.63 -198.96,-203.9 -303.02,-300.94 -60.59,-56.52 -64.41,-124.97 -64.14,-197.79 0.22,-61.31 29.53,-106.98 72.95,-148.53 98.94,-94.68 195.08,-192.31 292.74,-288.34 21.33,-20.98 42.07,-32.41 62.74,-34.15 20.68,1.74 41.42,13.18 62.75,34.15 97.66,96.03 193.8,193.67 292.74,288.34 43.42,41.54 72.73,87.21 72.95,148.53 0.27,72.82 -3.55,141.28 -64.14,197.79 -104.06,97.04 -202.31,200.31 -303.02,300.94 -22.29,22.27 -41.91,34.47 -61.28,36.55z"/>
  </g>
 </g>
</svg>
